# xmcd
#
# Track frame offsets:
#	150
#	13474
#	30611
#	47641
#	62330
#	79111
#	97643
#	111601
#	127105
#	143852
#	158952
#	174956
#
# Disc length: 2524 seconds
#
# Revision: 0
# Processed by: cddbd v1.5.2PL0 Copyright (c) Steve Scherf et al.
# Submitted via: EasyCDDAExtractor 2010.6.0.0
#
DISCID=9b09da0c
DTITLE=Changing Face - Blindfold
DYEAR=1900
DGENRE=
TTITLE0=Lessons learnd
TTITLE1=Everything changes
TTITLE2=Tomorrow is today
TTITLE3=What you say
TTITLE4=Piece apart
TTITLE5=Forever and ever young
TTITLE6=Land of ours
TTITLE7=Break free
TTITLE8=Stories of time
TTITLE9=Blindfold
TTITLE10=Echoed words
TTITLE11=Smile on today
EXTD=
EXTT0=
EXTT1=
EXTT2=
EXTT3=
EXTT4=
EXTT5=
EXTT6=
EXTT7=
EXTT8=
EXTT9=
EXTT10=
EXTT11=
PLAYORDER=
